<svg width="192" height="55" viewBox="0 0 192 55" fill="none" xmlns="http://www.w3.org/2000/svg">
<path d="M170.244 55H0V21.6246C0 9.66807 9.72676 0 21.7559 0H192V33.3754C192 45.3062 182.273 55 170.244 55Z" fill="#FF0000"/>
<path d="M101.665 37.8237V17.3562H114.677V22.1131H107.098V37.8237H101.665Z" fill="white"/>
<path d="M131.053 37.8237V29.8013H123.007V37.8237H117.575V17.3562H123.007V24.993H131.053V17.3562H136.485V37.8237H131.053Z" fill="white"/>
<path d="M161.63 17.3562V22.1131H167.968V37.8237H173.374V22.1131H179.764V17.3562H161.63Z" fill="white"/>
<path d="M153.636 37.8237V26.1501L144.996 37.8237H140.469V17.3562H145.901V28.9013L154.386 17.3562H159.069V37.8237H153.636Z" fill="white"/>
<path d="M70.4931 37.8237V25.6615L65.0864 32.0898L59.6798 25.6615V37.8237H54.2473V17.3562H59.6022L65.0864 24.4016L70.5707 17.3562H75.9256V37.8237H70.4931Z" fill="white"/>
<path d="M94.0856 37.8237L92.9474 34.9439H84.5141L83.3758 37.8237H77.9175L86.2732 17.3562H91.2917L99.6474 37.8237H94.0856ZM86.2214 30.6241H91.2659L88.7566 24.1959L86.2214 30.6241Z" fill="white"/>
<path d="M12.262 21.496C12.262 19.0276 13.2191 16.6877 15.0041 14.9135C16.789 13.1393 19.1431 12.1622 21.6265 12.1622H43.3048V16.8934H21.6524C20.4366 16.8934 19.2725 17.382 18.3929 18.2305C17.5134 19.1047 17.0219 20.2618 17.0219 21.4703L16.996 29.4413C16.7632 31.5498 15.1593 33.2726 13.0898 33.5811L12.2361 33.7097V21.496H12.262Z" fill="white"/>
<path d="M12.262 42.9921V38.2609H33.9402C35.1561 38.2609 36.3202 37.7724 37.1997 36.8981C38.0793 36.0239 38.5708 34.8668 38.5708 33.6583V26.0987C38.5708 23.8359 40.2523 21.9075 42.5029 21.5475L43.3566 21.4189V33.6326C43.3566 36.1267 42.3735 38.4666 40.5886 40.2151C38.8036 41.9893 36.4495 42.9664 33.9661 42.9664H12.262V42.9921Z" fill="white"/>
<path d="M30.6031 33.7611V27.6157L27.7834 30.9841L24.9637 27.6157V33.7611H21.2126V21.676H24.7567L27.7834 25.5587L30.8101 21.676H34.3541V33.7611H30.6031Z" fill="white"/>
</svg>
