<svg width="21" height="20" viewBox="0 0 21 20" fill="none" xmlns="http://www.w3.org/2000/svg">
<path fill-rule="evenodd" clip-rule="evenodd" d="M5.14644 7.5C5.14644 9.02862 5.60375 10.4504 6.38903 11.6361L0.43934 16.8787C-0.146447 17.4645 -0.146447 18.4142 0.43934 19C1.02513 19.5858 1.97487 19.5858 2.56066 19L8.51035 13.7574C9.696 14.5427 11.1178 15 12.6464 15C16.7886 15 20.1464 11.6421 20.1464 7.5C20.1464 3.35786 16.7886 0 12.6464 0C8.5043 0 5.14644 3.35786 5.14644 7.5ZM17.1464 7.5C17.1464 9.98528 15.1317 12 12.6464 12C10.1612 12 8.14644 9.98528 8.14644 7.5C8.14644 5.01472 10.1612 3 12.6464 3C15.1317 3 17.1464 5.01472 17.1464 7.5Z" fill="white"/>
</svg>
