<svg width="217" height="14" viewBox="0 0 217 14" fill="none" xmlns="http://www.w3.org/2000/svg">
<path d="M58.0377 7.61852C58.0377 7.05185 58.0377 7.05185 58.0377 7.61852C57.4571 7.05185 56.8765 7.05185 56.2958 7.05185C55.1345 7.05185 54.5539 8.18519 53.9732 8.75185C53.3926 9.31852 53.3926 10.4519 53.9732 11.0185C53.9732 11.5852 54.5539 11.5852 55.1345 11.5852C55.7152 11.5852 55.7152 11.5852 56.2958 11.5852C56.8765 11.0185 57.4571 9.88519 58.6184 9.31852C58.6184 8.75185 58.6184 8.75185 58.0377 7.61852C58.0377 8.18519 58.0377 8.18519 58.0377 7.61852ZM74.8765 6.48519C74.2958 6.48519 74.2958 6.48519 73.7152 5.91852H73.1345C72.5539 5.91852 71.9732 6.48519 71.9732 6.48519C70.8119 7.61852 70.2313 8.18519 70.2313 9.31852C70.2313 9.88519 70.2313 11.0185 70.2313 11.5852C70.2313 12.1519 70.8119 12.1519 71.3926 12.7185H71.9732C72.5539 12.7185 72.5539 12.7185 73.1345 12.7185C74.8765 12.7185 76.0378 11.0185 76.0378 9.31852C76.0378 9.31852 76.0378 9.31852 76.0378 8.75185C76.0378 8.18519 76.0378 7.05185 74.8765 6.48519ZM93.4571 7.61852C93.4571 7.05185 93.4571 7.05185 92.8764 6.48519C92.2958 5.91852 91.7152 5.91852 91.1345 5.91852C89.3926 5.91852 88.2313 7.61852 88.2313 9.31852C88.2313 9.88519 88.2313 11.0185 88.2313 11.5852C88.8119 12.1519 89.3926 12.7185 89.9732 12.7185C91.7152 12.7185 92.8765 11.0185 93.4571 9.88519C93.4571 9.31852 93.4571 8.75185 93.4571 7.61852C93.4571 8.18519 93.4571 8.18519 93.4571 7.61852ZM22.6184 7.05185C22.0378 6.48519 21.4571 6.48519 20.8765 6.48519C20.2958 6.48519 19.7152 7.05185 19.1345 7.61852L18.5539 8.18519C17.9732 8.75185 17.9732 9.31852 17.9732 9.88519V10.4519C17.9732 11.0185 17.9732 11.5852 18.5539 11.5852C19.1345 12.1519 19.7152 12.1519 20.2958 12.1519C20.8765 12.1519 21.4571 11.5852 22.0378 11.0185L22.6184 10.4519C22.6184 9.88519 23.199 9.31852 23.199 8.75185V8.18519C23.199 8.18519 23.199 7.61852 22.6184 7.05185ZM8.68292 6.48519C7.52163 6.48519 6.94098 7.05185 6.36034 7.61852C6.36034 7.61852 5.77969 8.18519 5.77969 8.75185C5.77969 9.31852 5.77969 9.88519 5.77969 9.88519V10.4519V11.0185C6.36034 12.1519 6.94098 12.7185 7.52163 12.1519C8.68292 12.1519 9.26356 11.0185 9.84421 9.88519C9.84421 9.31852 9.84421 9.31852 10.4249 8.75185C10.4249 7.61852 9.84421 6.48519 8.68292 6.48519ZM108.554 7.05185C107.393 5.91852 105.651 7.05185 105.07 7.61852C103.909 8.75185 103.328 11.5852 105.07 12.1519C105.651 12.7185 106.812 12.7185 107.393 12.1519C108.554 12.1519 109.715 11.0185 110.296 9.88519V9.31852C110.876 8.18519 109.715 7.61852 108.554 7.05185ZM42.941 7.61852C42.941 7.05185 42.3603 6.48519 41.7797 6.48519L41.199 5.91852H40.6184C40.0378 5.91852 40.0378 5.91852 39.4571 5.91852C38.8765 5.91852 38.2958 6.48519 37.7152 7.05185C36.5539 8.18519 35.9732 9.88519 37.1345 11.0185C37.1345 11.0185 37.1345 11.0185 37.1345 11.5852C37.1345 12.1519 37.7152 12.7185 38.2958 12.7185C38.2958 12.7185 38.8765 12.7185 38.8765 13.2852C39.4571 13.2852 40.0378 13.2852 40.6184 13.2852C41.199 12.7185 41.7797 12.1519 42.3603 11.0185C42.941 9.88519 42.941 9.31852 42.941 8.18519V7.61852ZM126.554 6.48519L125.973 5.91852L125.393 5.35185H124.812C120.167 4.78519 119.005 13.2852 123.651 12.1519C125.973 12.1519 127.135 9.31852 126.554 7.61852C127.135 7.61852 127.135 7.05185 126.554 6.48519ZM144.554 7.05185C144.554 6.48519 143.973 6.48519 143.393 6.48519H142.812H142.231C141.651 6.48519 141.07 7.05185 140.489 7.61852C139.909 7.61852 139.909 8.18519 139.328 8.75185C139.328 9.31852 139.328 9.88519 139.328 10.4519C139.328 11.0185 139.328 11.5852 139.909 11.5852C139.909 11.5852 140.489 11.5852 140.489 12.1519C141.07 12.1519 141.07 12.7185 141.651 12.1519C142.231 12.1519 142.812 11.5852 143.393 11.0185C143.973 10.4519 144.554 9.88519 144.554 8.75185V8.18519C144.554 8.18519 144.554 7.61852 144.554 7.05185ZM192.747 6.48519C192.167 5.91852 191.586 5.91852 190.425 6.48519C189.844 6.48519 189.264 7.05185 188.683 7.05185C187.522 8.18519 186.941 9.88519 187.522 11.0185C187.522 11.5852 188.102 12.1519 189.264 12.1519C190.425 12.1519 191.005 11.5852 191.586 11.0185L192.167 10.4519C192.747 9.88519 193.328 9.31852 193.328 8.18519C193.328 7.61852 193.328 7.61852 193.328 7.05185C193.328 7.05185 193.328 7.05185 192.747 6.48519ZM210.747 7.61852C210.747 7.61852 210.167 7.61852 210.167 7.05185C210.167 7.05185 210.167 7.05185 209.005 6.48519C208.425 6.48519 208.425 6.48519 207.844 6.48519C207.264 6.48519 206.683 7.05185 206.102 7.61852C205.522 8.18519 204.941 9.88519 205.522 10.4519C205.522 9.88519 205.522 10.4519 205.522 10.4519C205.522 10.4519 205.522 10.4519 205.522 11.0185C206.102 11.5852 206.102 11.5852 206.683 11.5852C207.264 11.5852 207.264 11.5852 207.844 11.5852C209.005 11.5852 210.167 10.4519 210.747 8.75185C211.909 9.31852 211.909 8.18519 210.747 7.61852C211.328 7.61852 211.328 7.61852 210.747 7.61852ZM176.489 7.05185C175.909 7.05185 175.909 7.05185 176.489 7.05185C175.909 7.05185 175.328 7.61852 175.328 7.61852C174.747 8.18519 174.167 8.75185 173.586 9.31852C173.005 9.88519 173.005 10.4519 173.005 11.0185C173.005 11.0185 173.005 11.5852 173.586 11.5852C173.586 12.1519 174.167 12.1519 174.167 12.1519C174.167 12.1519 174.167 12.1519 174.747 12.1519C175.328 12.1519 175.328 12.1519 175.328 12.1519C175.909 12.1519 176.489 12.1519 177.07 11.5852C177.651 11.0185 178.812 9.88519 178.812 8.75185C178.812 8.18519 178.812 7.61852 178.231 7.05185C178.231 6.48519 177.07 6.48519 176.489 7.05185ZM161.393 7.61852C161.393 6.48519 160.231 6.48519 159.651 6.48519C159.07 6.48519 158.489 6.48519 157.909 7.05185C157.328 7.61852 156.167 8.75185 156.167 9.88519C156.167 11.0185 156.167 11.5852 157.328 12.1519C157.909 12.1519 157.909 12.1519 158.489 12.1519H159.07C159.651 12.1519 160.231 11.5852 160.231 11.0185C160.812 10.4519 161.393 9.88519 161.393 9.31852V8.75185C161.393 8.75185 161.393 8.75185 161.393 8.18519V7.61852ZM214.812 0.251852C210.167 -0.314815 204.36 0.251852 199.715 0.251852C192.747 0.251852 185.199 0.251852 178.231 0.251852C159.07 0.251852 139.909 0.251852 120.747 0.251852C99.8442 0.251852 79.5216 0.251852 59.199 0.818519C41.199 0.251852 20.8765 0.818519 3.45711 0.251852C2.29582 0.251852 -0.607405 0.251852 1.13453 0.818519C15.6507 1.95185 30.7474 1.95185 48.1668 1.95185C70.2313 1.95185 91.1345 1.38519 113.199 1.38519C134.102 1.38519 155.005 1.38519 175.328 1.38519C187.522 1.38519 206.102 1.95185 215.393 0.818519C216.554 0.818519 217.135 0.251852 214.812 0.251852Z" fill="#EBA457"/>
</svg>
