<svg width="5" height="182" viewBox="0 0 5 182" fill="none" xmlns="http://www.w3.org/2000/svg">
<path d="M2.69746 180.177C2.69746 179.514 2.69746 178.188 2.69746 177.525C2.69746 176.862 2.69746 175.536 2.69746 174.872L2.69746 174.209L2.69746 174.872C0.60376 176.199 0.60376 176.862 0.60376 178.188C0.60376 178.851 0.60376 180.84 0.60376 181.503L1.30166 181.503C1.99956 182.166 2.69746 182.166 2.69746 181.503C3.39536 181.503 2.69746 180.84 2.69746 180.177Z" fill="#D4944E"/>
<path d="M4.79123 133.765C4.79123 132.439 4.79123 131.113 4.79123 130.45C4.79123 130.45 4.79123 129.787 4.09333 129.787C4.09333 129.124 3.39543 129.124 2.69753 129.124C2.69753 129.124 1.99963 129.124 1.99963 129.787C1.99963 131.113 1.99963 132.439 1.99963 133.765C1.99963 135.091 1.99963 135.754 2.69753 136.417L3.39543 136.417L4.09333 136.417C4.79123 136.417 4.79123 135.091 4.79123 133.765Z" fill="#D4944E"/>
<path d="M3.39543 167.579C4.09333 167.579 4.09333 166.916 4.09333 166.253C4.09333 164.264 4.09333 161.612 4.09333 159.623C4.09333 158.96 4.09333 158.96 3.39543 158.96C3.39543 158.297 2.69753 158.297 2.69753 158.96L1.99963 158.96C1.99963 160.286 1.99963 161.612 1.99963 163.601C1.99963 164.264 1.99963 164.927 1.99963 165.59C1.99963 166.253 2.69753 166.253 2.69753 166.253C2.69753 167.579 3.39543 167.579 3.39543 167.579Z" fill="#D4944E"/>
<path d="M4.09333 124.483C4.79123 123.157 4.79123 121.168 4.79123 119.841C4.79123 119.178 4.09333 118.515 4.09333 117.852C4.09333 117.189 3.39543 117.189 3.39543 116.526C3.39543 116.526 3.39543 116.526 3.39543 115.863L2.69753 115.863L1.99963 115.863C1.99963 116.526 2.69753 117.852 2.69753 119.178C2.69753 120.504 2.69753 121.831 2.69753 123.157C2.69753 123.82 3.39543 123.82 3.39543 123.82C3.39543 125.146 4.09333 125.146 4.09333 124.483Z" fill="#D4944E"/>
<path d="M1.99969 141.058C1.99969 141.058 1.30179 141.058 1.99969 141.058C1.30179 143.047 1.30179 145.036 1.30179 146.362C1.30179 147.689 0.603895 150.341 1.99969 151.667L2.69759 151.667L3.39549 151.667C4.09339 150.341 4.09339 147.689 4.09339 146.362C4.09339 145.036 4.09339 143.047 4.09339 141.721C4.09339 141.721 4.09339 141.058 3.39549 141.058C2.69759 141.058 2.69759 141.058 1.99969 141.058Z" fill="#D4944E"/>
<path d="M4.09333 63.4845C4.09333 61.4954 4.09333 58.8433 4.09333 56.8542C4.09333 56.8542 4.09333 56.1912 3.39543 56.1912C3.39543 55.5282 2.69753 55.5282 2.69753 56.1912L1.99963 56.1912C1.99963 58.1803 1.99963 60.8324 1.99963 62.8215C1.99963 63.4845 2.69753 63.4845 2.69753 63.4845C2.69753 64.1475 4.09333 64.1475 4.09333 63.4845Z" fill="#D4944E"/>
<path d="M4.09333 77.4079C4.09333 76.0819 4.09333 75.4189 4.09333 74.0928C4.09333 72.7668 4.09333 71.4407 4.09333 70.7777C4.09333 70.7777 4.09333 70.1147 3.39543 70.1147C3.39543 69.4516 2.69753 69.4516 2.69753 69.4516C2.69753 69.4516 1.99963 69.4516 1.99963 70.1147C1.99963 71.4407 1.99963 72.7668 1.99963 73.4298C1.99963 74.7558 1.99963 75.4189 1.99963 76.7449C1.99963 77.4079 2.69753 77.4079 2.69753 76.7449C2.69753 78.071 3.39543 78.071 4.09333 77.4079Z" fill="#D4944E"/>
<path d="M3.39521 5.1384C3.39521 3.81235 3.39521 2.48631 3.39521 1.16026C3.39521 1.16026 3.39521 0.497238 2.69731 0.497238C2.69731 -0.165787 1.99941 -0.165787 1.99941 0.497238C1.99941 0.497238 1.30151 0.49724 1.30151 1.16026C1.30151 2.48631 1.30151 4.47538 1.30151 5.80143C1.30151 7.12747 1.30151 7.7905 1.99941 9.11655L2.69731 9.11655L3.39521 9.11655C3.39521 7.7905 3.39521 6.46445 3.39521 5.1384Z" fill="#D4944E"/>
<path d="M4.09333 48.2349C4.09333 46.9089 4.09333 45.5828 4.09333 43.5938C4.09333 43.5938 4.09333 42.9307 3.39543 42.9307C3.39543 42.2677 2.69753 42.2677 2.69753 42.9307C2.69753 42.9307 1.99963 42.9307 1.99963 43.5938C1.99963 45.5828 1.99963 46.9089 1.99963 48.898C1.99963 50.224 1.99963 51.55 2.69753 52.2131L3.39543 52.2131L4.09333 52.2131C4.09333 50.887 4.09333 49.561 4.09333 48.2349Z" fill="#D4944E"/>
<path d="M4.09333 36.3005C4.09333 34.9745 4.09333 33.6485 4.09333 32.9854C4.09333 32.9854 4.09333 32.3224 3.39543 32.3224C3.39543 31.6594 2.69753 31.6594 2.69753 32.3224L1.99963 32.3224C1.99963 33.6485 1.99963 34.9745 1.99963 36.3005C1.99963 36.9636 1.99963 38.2896 1.99963 38.9526L2.69753 38.9526L3.39543 38.9526C4.09333 38.9526 4.09333 37.6266 4.09333 36.3005Z" fill="#D4944E"/>
<path d="M4.09312 21.714C4.09312 21.051 4.09312 18.3989 4.09312 18.3989L4.09312 17.7359L4.09312 17.0728C4.09312 17.0728 4.09312 17.0728 3.39522 17.0728C3.39522 17.0728 2.69732 17.0728 2.69732 17.7359C1.99943 19.0619 1.99943 20.3879 1.99943 21.714C1.99943 23.04 1.30153 24.3661 2.69733 25.6921L3.39522 25.6921C3.39522 26.3551 4.09312 26.3551 4.09312 25.6921C4.09312 25.0291 4.09312 23.04 4.09312 21.714Z" fill="#D4944E"/>
<path d="M4.09345 101.94C3.39555 101.277 2.69765 100.614 2.69765 101.277C2.69765 101.277 1.99975 101.277 1.99975 101.94C1.99975 104.592 1.30185 108.57 1.99975 111.222C1.99975 111.885 2.69765 111.222 2.69765 111.222C2.69765 111.885 3.39555 111.885 3.39555 111.222C4.79135 108.57 4.09345 105.255 4.09345 101.94Z" fill="#D4944E"/>
<path d="M4.09339 90.6685C4.09339 88.6794 4.09339 86.6903 4.09339 84.0382C4.09339 84.0382 4.09339 83.3752 3.39549 83.3752C3.39549 82.7122 2.69759 82.7122 1.99969 82.7122C1.99969 82.7122 1.30179 82.7122 1.30179 83.3752C1.30179 85.3643 1.30179 87.3533 1.30179 90.0054C1.30179 91.3315 0.603895 93.3206 1.99969 94.6466L2.69759 94.6466L3.39549 94.6466C4.09339 93.9836 4.09339 91.9945 4.09339 90.6685Z" fill="#D4944E"/>
</svg>
