<svg width="171" height="193" viewBox="0 0 171 193" fill="none" xmlns="http://www.w3.org/2000/svg">
<path d="M169.08 63.6708C161.869 29.6212 131.997 4.47694 99.5487 1.3339C99.0336 1.3339 98.0035 1.3339 97.4885 1.3339C87.7026 -0.761454 77.4016 -0.237615 67.6157 1.85774C53.1944 4.47694 39.2881 11.2869 28.9872 22.2875C25.3818 25.9544 22.2916 30.6689 19.7163 35.3835C13.5358 42.7172 9.41538 51.6225 6.84015 61.0516C6.84015 58.9562 6.84015 56.8609 6.84015 54.7655C7.35519 53.7178 7.35519 53.194 7.87024 52.1463C7.87024 52.6702 7.87024 53.7178 7.87024 54.2417C7.87024 53.194 7.87024 52.1463 8.38529 51.0986C10.9605 45.3364 14.0508 40.098 17.6561 34.8596C20.2314 31.1927 23.3217 28.0497 26.4119 24.3828C20.7464 30.1451 15.0809 36.955 10.9605 44.2887C6.3251 52.1463 4.26491 61.0516 2.71977 70.4807C0.659579 81.4813 0.144532 92.482 1.68967 102.959C3.23482 112.388 6.84015 121.817 10.9605 130.722C13.0207 134.913 15.596 139.627 19.2013 142.771C20.2314 144.342 20.7464 145.914 21.7765 147.485C26.4119 154.295 32.5925 160.057 39.8032 163.2C42.3784 164.248 44.9536 165.296 47.5289 166.343C48.0439 166.343 48.0439 166.867 48.559 166.867C55.7696 170.534 63.4953 173.153 71.2211 174.201C79.9769 175.249 88.7327 175.249 97.4885 174.201C102.124 173.677 106.759 172.629 111.395 172.106C115.515 171.058 120.151 170.01 124.271 168.439C127.876 166.867 130.967 165.296 134.572 163.2C137.662 161.105 140.752 159.01 142.298 155.343C146.933 151.152 151.053 146.961 154.659 141.723C159.809 134.389 163.415 126.532 165.99 117.626C166.505 116.055 167.02 113.959 167.535 112.388C164.96 127.055 158.264 141.199 147.963 152.2C147.448 152.723 147.963 152.723 148.478 152.723C154.659 146.961 159.294 139.104 162.899 131.246C164.445 127.055 166.505 122.341 167.535 117.626C168.565 113.436 169.08 108.721 169.595 104.006C169.595 102.959 169.595 101.911 169.595 100.863C170.11 97.7203 170.11 94.5773 170.625 90.9104C171.14 81.4813 170.625 72.5761 169.08 63.6708ZM100.579 2.90542C101.094 2.90542 101.094 2.90542 101.609 2.90542C107.274 4.47694 113.455 7.09614 119.12 10.2392C120.666 11.2869 122.211 12.8584 124.271 13.906C122.211 12.8584 120.666 11.8107 118.605 11.2869C106.244 5.52462 92.853 2.90542 79.4618 3.9531C86.1574 2.38158 93.3681 1.85774 100.579 2.90542ZM42.8935 11.8107C53.1944 5.52462 64.5254 2.38158 75.8565 0.810064C80.4919 0.286225 84.6123 0.286225 89.2477 0.810064C82.0371 1.3339 74.8264 2.90542 67.6157 5.00078C54.2245 8.14382 41.3483 14.4299 31.0474 23.859C32.5925 22.2875 34.1377 20.716 35.6828 19.1444C33.1076 21.2398 31.0474 23.3352 28.9872 25.9544C26.927 27.5259 24.8668 29.6212 23.3217 31.7166C28.4721 23.859 35.1677 17.0491 42.8935 11.8107ZM60.4051 8.14382C55.2546 10.2392 50.6192 12.8584 45.9837 16.0014C34.6527 23.3352 24.8668 32.7643 17.6561 44.2887C18.1712 43.2411 18.6862 41.6695 19.7163 40.098C21.7765 36.4311 24.3518 32.2404 27.442 28.5736C36.7129 19.1444 48.0439 12.3345 60.4051 8.14382ZM20.7464 35.3835C21.7765 34.3358 23.3217 32.7643 24.3518 31.1927C21.2615 35.3835 18.6862 40.098 16.626 44.8126C17.6561 41.6695 19.2013 38.5265 20.7464 35.3835ZM17.6561 39.5742C16.111 43.2411 14.5659 47.4318 13.5358 51.6225C13.5358 51.6225 13.5358 52.1463 13.0207 52.1463C9.93043 58.9562 7.35519 65.7661 6.3251 73.0999C6.3251 69.9569 6.3251 67.3377 6.3251 64.1946C8.90034 55.2894 12.5057 46.9079 17.6561 39.5742ZM11.4756 111.34C14.5659 119.198 18.1712 126.532 22.2916 133.865C24.3518 137.008 26.4119 140.151 28.4721 143.294L27.9571 142.771C22.2916 137.532 17.6561 131.77 14.5659 124.96C13.0207 121.817 11.9906 118.674 10.9605 115.531C10.4455 112.388 9.93043 109.769 9.41538 106.626C7.87024 98.2442 7.35519 90.3866 7.35519 82.0052C7.35519 78.3383 7.87024 74.6714 8.90034 71.0045C6.84015 83.5767 6.84015 96.6727 10.9605 108.197C10.9605 108.721 11.4756 109.245 11.4756 109.769C11.4756 112.388 11.9906 114.483 11.9906 117.102H12.5057C11.4756 115.007 11.4756 112.912 11.4756 111.34ZM7.87024 89.3389C7.35519 79.386 8.90034 69.9569 11.4756 60.5278C8.90034 75.1953 9.41538 89.8628 10.4455 104.53C8.90034 99.2919 7.87024 94.5773 7.87024 89.3389ZM8.38529 122.341C6.3251 117.626 4.77996 112.912 3.74986 107.673C2.20472 102.435 1.68967 96.6727 1.68967 90.9104C1.17463 79.9098 3.23482 68.9092 5.81005 58.4324C5.81005 57.3847 6.3251 56.337 6.84015 55.8132C6.84015 58.4324 6.84015 60.5278 6.3251 63.1469C5.81005 65.7661 5.295 68.3853 5.295 71.0045C5.81005 69.433 5.81005 67.8615 6.3251 66.8138C6.3251 70.4807 5.81005 74.1476 5.81005 77.8144C5.295 85.1482 5.295 93.0058 6.3251 100.34C7.87024 113.959 10.9605 127.579 17.1411 139.628C13.5358 134.389 10.4455 128.627 8.38529 122.341ZM43.4085 162.676C39.2881 160.057 35.1677 156.914 31.5624 153.247C26.4119 148.009 21.7765 141.199 18.1712 134.389H17.6561C21.2615 141.723 25.3818 148.009 30.5323 153.771C32.5925 155.867 35.1677 157.962 37.743 160.057C34.1376 157.962 30.5323 155.343 27.442 152.2C25.3818 150.104 23.3217 147.485 21.7765 144.866C22.2916 144.866 22.2916 144.342 22.2916 144.342C21.7765 143.818 21.2615 143.818 21.2615 143.294C18.1712 138.056 15.596 131.77 13.5358 126.008C15.0809 129.675 17.1411 132.818 19.7163 135.961C23.8367 141.199 28.4721 145.39 33.6226 149.58C35.6828 152.2 38.258 154.819 40.8333 156.914C44.9536 160.581 49.074 163.2 53.1944 165.819C52.1643 165.819 51.6493 165.296 50.6192 165.296C48.0439 164.248 45.9837 163.724 43.4085 162.676ZM38.7731 153.247C47.0138 159.01 54.7395 163.2 63.4953 166.343C61.4352 166.343 59.375 165.819 57.3148 165.819C54.7395 164.772 52.1643 163.2 49.5891 162.153C45.4687 159.533 41.8634 156.39 38.7731 153.247ZM70.706 172.629C64.0104 171.582 57.3148 169.486 51.1342 166.343C53.7094 166.867 56.2847 167.391 58.8599 167.391C66.5856 170.01 74.3113 171.582 82.5521 172.106C84.0972 172.106 85.6424 172.629 87.1875 172.629C88.7327 172.629 90.2778 172.629 91.823 172.629C85.1273 173.677 77.9167 173.677 70.706 172.629ZM64.0104 168.439C64.5254 168.439 65.0405 168.439 65.5555 168.439C66.5856 168.439 67.6157 168.439 68.6458 168.439C70.706 168.963 73.2812 170.01 75.3414 170.534C71.2211 170.01 67.6157 169.486 64.0104 168.439ZM133.542 162.676C130.451 164.772 126.846 166.343 123.241 167.915C120.666 168.962 118.09 169.486 115.515 170.01C122.726 167.391 129.421 164.248 136.117 159.533C138.177 158.486 139.722 156.914 141.783 155.343C139.722 158.486 136.632 160.581 133.542 162.676ZM169.08 94.5773C169.08 95.625 169.08 96.1488 169.08 96.6727C168.05 106.102 165.99 115.531 162.384 123.912C155.689 141.199 142.298 154.819 126.331 163.2C118.605 167.391 109.85 170.01 101.094 171.058C100.579 171.058 100.579 171.058 100.064 171.058C111.395 169.486 122.211 165.296 131.482 157.962C131.482 157.962 131.482 157.438 131.482 157.962C123.241 163.2 114.485 167.391 105.214 168.962C99.5487 170.01 93.3681 171.058 87.1875 171.058C83.5822 170.534 79.4618 170.01 75.8565 168.962C75.3414 168.962 74.8264 168.963 74.8264 168.439C76.3715 168.439 77.9167 168.439 79.4618 168.439C84.0972 168.439 88.2176 168.962 92.853 168.962C101.609 168.962 110.365 167.391 118.605 163.724C120.666 162.676 123.241 161.629 125.301 160.057C127.876 158.486 129.936 156.914 132.512 155.867C133.027 155.867 132.512 155.343 132.512 155.343C128.391 157.438 124.271 160.057 120.151 162.153C116.03 164.248 111.395 165.296 107.274 166.343C98.0035 167.915 88.7327 166.867 79.4618 166.343C76.3715 166.343 73.2812 166.343 70.191 165.819C57.8298 161.629 45.4687 154.819 35.1677 146.437C31.5624 145.39 30.0173 143.294 28.9872 141.199C22.8066 132.818 17.6561 123.388 14.0508 113.436C13.0207 110.816 11.9906 108.721 11.4756 106.102C10.9605 98.2442 10.4455 90.3866 10.4455 82.529C10.4455 72.0522 11.9906 62.6231 14.0508 52.6702C20.7464 38.0027 32.0775 26.4782 44.9536 17.5729C53.7094 11.8107 62.9803 7.09614 72.7662 3.9531C87.1875 1.85774 102.124 3.9531 116.03 9.71533C124.271 13.3822 131.997 18.0968 138.692 24.3828C145.388 31.1927 151.053 39.5742 154.659 48.4794C158.264 56.8609 160.324 66.29 161.869 75.1953C162.899 80.4336 163.415 85.672 163.415 90.3866V90.9104C163.415 95.1012 163.415 98.768 162.899 102.959C162.384 105.578 161.869 108.197 161.354 110.816C159.809 116.579 157.749 121.817 155.174 127.055C151.053 135.437 145.903 142.247 140.752 149.58C140.237 150.104 141.267 150.104 141.267 150.104C152.083 137.008 161.354 120.769 163.415 103.483C164.445 94.5773 163.93 85.672 162.384 76.7668C161.869 72.5761 161.354 68.3853 160.839 64.1946C160.324 59.4801 159.294 54.2417 158.264 49.5271C156.204 41.6695 152.083 35.9073 146.418 30.6689C144.873 29.0974 143.328 27.5259 141.783 25.9544C141.267 25.4305 140.752 24.3828 139.722 23.859C136.117 20.1921 131.482 16.5252 127.361 13.906C126.331 13.3822 125.301 12.3345 124.271 11.8107C122.211 10.2392 120.151 8.66765 118.09 7.09614C118.09 7.09614 118.09 7.09614 117.575 7.09614C114.485 5.00078 110.88 3.42926 107.789 1.85774C122.211 5.00078 135.602 12.8584 145.903 23.3352C147.963 24.9067 149.508 27.002 151.053 29.0974C148.993 27.002 147.448 25.4305 144.873 23.859C142.813 22.2875 140.237 20.716 138.177 18.6206C136.117 17.0491 133.542 14.9537 130.967 14.9537C132.512 14.9537 133.542 16.0014 135.087 16.5252C136.632 17.5729 138.177 18.6206 139.722 20.1921C142.298 22.2875 145.388 23.859 147.448 26.4782C154.659 32.7643 159.809 41.6695 162.384 50.5748C167.02 66.29 169.08 80.4336 169.08 94.5773ZM143.843 30.1451C149.508 35.3835 154.659 41.1457 157.234 48.4794C158.779 53.194 159.294 57.9086 160.324 62.6231C160.324 63.6708 160.839 65.2423 160.839 66.29C159.294 60.5278 157.749 55.2894 155.689 49.5271C152.599 42.7172 148.993 35.9073 143.843 30.1451ZM168.565 73.6237C167.535 65.7661 165.99 57.9086 163.415 50.5748C165.99 56.337 167.535 62.6231 168.565 69.433C169.08 74.1476 169.595 78.8621 169.595 84.1005C169.08 80.4336 169.08 76.7668 168.565 73.6237Z" fill="#E64C23"/>
<path d="M169.08 63.6708C161.869 29.6212 131.997 4.47694 99.5487 1.3339C99.0336 1.3339 98.0035 1.3339 97.4885 1.3339C87.7026 -0.761454 77.4016 -0.237615 67.6157 1.85774C53.1944 4.47694 39.2881 11.2869 28.9872 22.2875C25.3818 25.9544 22.2916 30.6689 19.7163 35.3835C13.5358 42.7172 9.41538 51.6225 6.84015 61.0516C6.84015 58.9562 6.84015 56.8609 6.84015 54.7655C7.35519 53.7178 7.35519 53.194 7.87024 52.1463C7.87024 52.6702 7.87024 53.7178 7.87024 54.2417C7.87024 53.194 7.87024 52.1463 8.38529 51.0986C10.9605 45.3364 14.0508 40.098 17.6561 34.8596C20.2314 31.1927 23.3217 28.0497 26.4119 24.3828C20.7464 30.1451 15.0809 36.955 10.9605 44.2887C6.3251 52.1463 4.26491 61.0516 2.71977 70.4807C0.659579 81.4813 0.144532 92.482 1.68967 102.959C3.23482 112.388 6.84015 121.817 10.9605 130.722C13.0207 134.913 15.596 139.627 19.2013 142.771C20.2314 144.342 20.7464 145.914 21.7765 147.485C26.4119 154.295 32.5925 160.057 39.8032 163.2C42.3784 164.248 44.9536 165.296 47.5289 166.343C48.0439 166.343 48.0439 166.867 48.559 166.867C55.7696 170.534 63.4953 173.153 71.2211 174.201C79.9769 175.249 88.7327 175.249 97.4885 174.201C102.124 173.677 106.759 172.629 111.395 172.106C115.515 171.058 120.151 170.01 124.271 168.439C127.876 166.867 130.967 165.296 134.572 163.2C137.662 161.105 140.752 159.01 142.298 155.343C146.933 151.152 151.053 146.961 154.659 141.723C159.809 134.389 163.415 126.532 165.99 117.626C166.505 116.055 167.02 113.959 167.535 112.388C164.96 127.055 158.264 141.199 147.963 152.2C147.448 152.723 147.963 152.723 148.478 152.723C154.659 146.961 159.294 139.104 162.899 131.246C164.445 127.055 166.505 122.341 167.535 117.626C168.565 113.436 169.08 108.721 169.595 104.006C169.595 102.959 169.595 101.911 169.595 100.863C170.11 97.7203 170.11 94.5773 170.625 90.9104C171.14 81.4813 170.625 72.5761 169.08 63.6708ZM100.579 2.90542C101.094 2.90542 101.094 2.90542 101.609 2.90542C107.274 4.47694 113.455 7.09614 119.12 10.2392C120.666 11.2869 122.211 12.8584 124.271 13.906C122.211 12.8584 120.666 11.8107 118.605 11.2869C106.244 5.52462 92.853 2.90542 79.4618 3.9531C86.1574 2.38158 93.3681 1.85774 100.579 2.90542ZM42.8935 11.8107C53.1944 5.52462 64.5254 2.38158 75.8565 0.810064C80.4919 0.286225 84.6123 0.286225 89.2477 0.810064C82.0371 1.3339 74.8264 2.90542 67.6157 5.00078C54.2245 8.14382 41.3483 14.4299 31.0474 23.859C32.5925 22.2875 34.1377 20.716 35.6828 19.1444C33.1076 21.2398 31.0474 23.3352 28.9872 25.9544C26.927 27.5259 24.8668 29.6212 23.3217 31.7166C28.4721 23.859 35.1677 17.0491 42.8935 11.8107ZM60.4051 8.14382C55.2546 10.2392 50.6192 12.8584 45.9837 16.0014C34.6527 23.3352 24.8668 32.7643 17.6561 44.2887C18.1712 43.2411 18.6862 41.6695 19.7163 40.098C21.7765 36.4311 24.3518 32.2404 27.442 28.5736C36.7129 19.1444 48.0439 12.3345 60.4051 8.14382ZM20.7464 35.3835C21.7765 34.3358 23.3217 32.7643 24.3518 31.1927C21.2615 35.3835 18.6862 40.098 16.626 44.8126C17.6561 41.6695 19.2013 38.5265 20.7464 35.3835ZM17.6561 39.5742C16.111 43.2411 14.5659 47.4318 13.5358 51.6225C13.5358 51.6225 13.5358 52.1463 13.0207 52.1463C9.93043 58.9562 7.35519 65.7661 6.3251 73.0999C6.3251 69.9569 6.3251 67.3377 6.3251 64.1946C8.90034 55.2894 12.5057 46.9079 17.6561 39.5742ZM11.4756 111.34C14.5659 119.198 18.1712 126.532 22.2916 133.865C24.3518 137.008 26.4119 140.151 28.4721 143.294L27.9571 142.771C22.2916 137.532 17.6561 131.77 14.5659 124.96C13.0207 121.817 11.9906 118.674 10.9605 115.531C10.4455 112.388 9.93043 109.769 9.41538 106.626C7.87024 98.2442 7.35519 90.3866 7.35519 82.0052C7.35519 78.3383 7.87024 74.6714 8.90034 71.0045C6.84015 83.5767 6.84015 96.6727 10.9605 108.197C10.9605 108.721 11.4756 109.245 11.4756 109.769C11.4756 112.388 11.9906 114.483 11.9906 117.102H12.5057C11.4756 115.007 11.4756 112.912 11.4756 111.34ZM7.87024 89.3389C7.35519 79.386 8.90034 69.9569 11.4756 60.5278C8.90034 75.1953 9.41538 89.8628 10.4455 104.53C8.90034 99.2919 7.87024 94.5773 7.87024 89.3389ZM8.38529 122.341C6.3251 117.626 4.77996 112.912 3.74986 107.673C2.20472 102.435 1.68967 96.6727 1.68967 90.9104C1.17463 79.9098 3.23482 68.9092 5.81005 58.4324C5.81005 57.3847 6.3251 56.337 6.84015 55.8132C6.84015 58.4324 6.84015 60.5278 6.3251 63.1469C5.81005 65.7661 5.295 68.3853 5.295 71.0045C5.81005 69.433 5.81005 67.8615 6.3251 66.8138C6.3251 70.4807 5.81005 74.1476 5.81005 77.8144C5.295 85.1482 5.295 93.0058 6.3251 100.34C7.87024 113.959 10.9605 127.579 17.1411 139.628C13.5358 134.389 10.4455 128.627 8.38529 122.341ZM43.4085 162.676C39.2881 160.057 35.1677 156.914 31.5624 153.247C26.4119 148.009 21.7765 141.199 18.1712 134.389H17.6561C21.2615 141.723 25.3818 148.009 30.5323 153.771C32.5925 155.867 35.1677 157.962 37.743 160.057C34.1376 157.962 30.5323 155.343 27.442 152.2C25.3818 150.104 23.3217 147.485 21.7765 144.866C22.2916 144.866 22.2916 144.342 22.2916 144.342C21.7765 143.818 21.2615 143.818 21.2615 143.294C18.1712 138.056 15.596 131.77 13.5358 126.008C15.0809 129.675 17.1411 132.818 19.7163 135.961C23.8367 141.199 28.4721 145.39 33.6226 149.58C35.6828 152.2 38.258 154.819 40.8333 156.914C44.9536 160.581 49.074 163.2 53.1944 165.819C52.1643 165.819 51.6493 165.296 50.6192 165.296C48.0439 164.248 45.9837 163.724 43.4085 162.676ZM38.7731 153.247C47.0138 159.01 54.7395 163.2 63.4953 166.343C61.4352 166.343 59.375 165.819 57.3148 165.819C54.7395 164.772 52.1643 163.2 49.5891 162.153C45.4687 159.533 41.8634 156.39 38.7731 153.247ZM70.706 172.629C64.0104 171.582 57.3148 169.486 51.1342 166.343C53.7094 166.867 56.2847 167.391 58.8599 167.391C66.5856 170.01 74.3113 171.582 82.5521 172.106C84.0972 172.106 85.6424 172.629 87.1875 172.629C88.7327 172.629 90.2778 172.629 91.823 172.629C85.1273 173.677 77.9167 173.677 70.706 172.629ZM64.0104 168.439C64.5254 168.439 65.0405 168.439 65.5555 168.439C66.5856 168.439 67.6157 168.439 68.6458 168.439C70.706 168.963 73.2812 170.01 75.3414 170.534C71.2211 170.01 67.6157 169.486 64.0104 168.439ZM133.542 162.676C130.451 164.772 126.846 166.343 123.241 167.915C120.666 168.962 118.09 169.486 115.515 170.01C122.726 167.391 129.421 164.248 136.117 159.533C138.177 158.486 139.722 156.914 141.783 155.343C139.722 158.486 136.632 160.581 133.542 162.676ZM169.08 94.5773C169.08 95.625 169.08 96.1488 169.08 96.6727C168.05 106.102 165.99 115.531 162.384 123.912C155.689 141.199 142.298 154.819 126.331 163.2C118.605 167.391 109.85 170.01 101.094 171.058C100.579 171.058 100.579 171.058 100.064 171.058C111.395 169.486 122.211 165.296 131.482 157.962C131.482 157.962 131.482 157.438 131.482 157.962C123.241 163.2 114.485 167.391 105.214 168.962C99.5487 170.01 93.3681 171.058 87.1875 171.058C83.5822 170.534 79.4618 170.01 75.8565 168.962C75.3414 168.962 74.8264 168.963 74.8264 168.439C76.3715 168.439 77.9167 168.439 79.4618 168.439C84.0972 168.439 88.2176 168.962 92.853 168.962C101.609 168.962 110.365 167.391 118.605 163.724C120.666 162.676 123.241 161.629 125.301 160.057C127.876 158.486 129.936 156.914 132.512 155.867C133.027 155.867 132.512 155.343 132.512 155.343C128.391 157.438 124.271 160.057 120.151 162.153C116.03 164.248 111.395 165.296 107.274 166.343C98.0035 167.915 88.7327 166.867 79.4618 166.343C76.3715 166.343 73.2812 166.343 70.191 165.819C57.8298 161.629 45.4687 154.819 35.1677 146.437C31.5624 145.39 30.0173 143.294 28.9872 141.199C22.8066 132.818 17.6561 123.388 14.0508 113.436C13.0207 110.816 11.9906 108.721 11.4756 106.102C10.9605 98.2442 10.4455 90.3866 10.4455 82.529C10.4455 72.0522 11.9906 62.6231 14.0508 52.6702C20.7464 38.0027 32.0775 26.4782 44.9536 17.5729C53.7094 11.8107 62.9803 7.09614 72.7662 3.9531C87.1875 1.85774 102.124 3.9531 116.03 9.71533C124.271 13.3822 131.997 18.0968 138.692 24.3828C145.388 31.1927 151.053 39.5742 154.659 48.4794C158.264 56.8609 160.324 66.29 161.869 75.1953C162.899 80.4336 163.415 85.672 163.415 90.3866V90.9104C163.415 95.1012 163.415 98.768 162.899 102.959C162.384 105.578 161.869 108.197 161.354 110.816C159.809 116.579 157.749 121.817 155.174 127.055C151.053 135.437 145.903 142.247 140.752 149.58C140.237 150.104 141.267 150.104 141.267 150.104C152.083 137.008 161.354 120.769 163.415 103.483C164.445 94.5773 163.93 85.672 162.384 76.7668C161.869 72.5761 161.354 68.3853 160.839 64.1946C160.324 59.4801 159.294 54.2417 158.264 49.5271C156.204 41.6695 152.083 35.9073 146.418 30.6689C144.873 29.0974 143.328 27.5259 141.783 25.9544C141.267 25.4305 140.752 24.3828 139.722 23.859C136.117 20.1921 131.482 16.5252 127.361 13.906C126.331 13.3822 125.301 12.3345 124.271 11.8107C122.211 10.2392 120.151 8.66765 118.09 7.09614C118.09 7.09614 118.09 7.09614 117.575 7.09614C114.485 5.00078 110.88 3.42926 107.789 1.85774C122.211 5.00078 135.602 12.8584 145.903 23.3352C147.963 24.9067 149.508 27.002 151.053 29.0974C148.993 27.002 147.448 25.4305 144.873 23.859C142.813 22.2875 140.237 20.716 138.177 18.6206C136.117 17.0491 133.542 14.9537 130.967 14.9537C132.512 14.9537 133.542 16.0014 135.087 16.5252C136.632 17.5729 138.177 18.6206 139.722 20.1921C142.298 22.2875 145.388 23.859 147.448 26.4782C154.659 32.7643 159.809 41.6695 162.384 50.5748C167.02 66.29 169.08 80.4336 169.08 94.5773ZM143.843 30.1451C149.508 35.3835 154.659 41.1457 157.234 48.4794C158.779 53.194 159.294 57.9086 160.324 62.6231C160.324 63.6708 160.839 65.2423 160.839 66.29C159.294 60.5278 157.749 55.2894 155.689 49.5271C152.599 42.7172 148.993 35.9073 143.843 30.1451ZM168.565 73.6237C167.535 65.7661 165.99 57.9086 163.415 50.5748C165.99 56.337 167.535 62.6231 168.565 69.433C169.08 74.1476 169.595 78.8621 169.595 84.1005C169.08 80.4336 169.08 76.7668 168.565 73.6237Z" fill="#E64C23"/>
<g clip-path="url(#clip0)">
<path d="M134.792 68.9483L128.74 52.2106C126.747 46.656 120.621 43.8417 115.086 45.8414L103.942 49.9147C103.942 49.8406 103.942 49.6925 104.016 49.6185C104.754 44.4342 102.613 39.4721 98.2591 36.2875C94.1261 33.251 88.886 32.6586 84.2364 34.5841C79.513 36.5838 76.2657 40.7312 75.5277 45.7673L73.904 56.0617L65.638 48.8038C61.8002 45.397 56.634 44.2861 51.8368 45.8414C41.0615 49.1741 38.1832 62.8753 46.4492 70.3555C46.5968 70.5036 46.7444 70.6517 46.892 70.7258L35.0096 75.0953C29.4744 77.095 26.5961 83.242 28.6626 88.7966L34.7144 105.534L42.2424 102.794V182.335C42.2424 188.26 46.9658 193 52.87 193H123.869C129.773 193 134.496 188.186 134.496 182.335V90.4259H75.9705L134.792 68.9483ZM117.448 52.5809C119.293 51.9143 121.359 52.8771 122.024 54.7286L125.64 64.8009L92.3548 76.8728L87.4838 63.5419L117.448 52.5809ZM82.4652 46.8042C82.8342 44.212 84.5317 42.1383 86.8934 41.1015C89.2551 40.1387 91.912 40.4349 93.9785 41.9161C98.7757 45.397 97.5948 52.1365 92.1334 54.1362C91.2477 54.4324 85.2697 56.6542 84.9745 56.7283L80.6201 58.3576L82.4652 46.8042ZM80.7677 65.9118L85.6387 79.3168C83.277 80.1315 81.2843 80.8721 78.9964 81.7608L74.1254 68.3558L80.7677 65.9118ZM53.9033 52.5809C56.3388 51.8403 58.9957 52.3587 60.9146 54.0621L70.14 62.2088C67.4831 63.1716 61.136 65.4675 58.6267 66.4302C56.0436 67.393 53.3129 66.8005 51.2464 65.0231C46.892 61.1719 48.5156 54.2843 53.9033 52.5809ZM38.9212 96.3508L35.3049 86.3526C34.6406 84.5011 35.6001 82.4274 37.4452 81.7608L67.4831 70.7998L72.2803 84.2048L38.9212 96.3508ZM98.9971 97.6098H127.411V182.409C127.411 184.409 125.788 185.964 123.795 185.964H98.9971V97.6098ZM84.8269 97.6098H91.9858V185.964H84.8269V97.6098ZM77.7417 97.6098V185.964H52.87C50.8774 185.964 49.3275 184.335 49.3275 182.409V100.202L56.4864 97.6098H77.7417Z" fill="white"/>
<path d="M93.9047 140.491C93.9047 139.454 93.019 138.565 91.9858 138.565C84.6055 138.565 78.5536 132.492 78.5536 125.086C78.5536 124.05 77.668 123.161 76.6347 123.161C75.6015 123.161 74.7158 124.05 74.7158 125.086C74.7158 132.492 68.664 138.565 61.2836 138.565C60.2504 138.565 59.3647 139.454 59.3647 140.491C59.3647 141.528 60.2504 142.417 61.2836 142.417C68.664 142.417 74.7158 148.49 74.7158 155.896C74.7158 156.932 75.6015 157.821 76.6347 157.821C77.668 157.821 78.5536 156.932 78.5536 155.896C78.5536 148.49 84.6055 142.417 91.9858 142.417C93.019 142.417 93.9047 141.528 93.9047 140.491Z" fill="#E64C23"/>
<path d="M130.511 90.9443C130.511 90.2037 129.921 89.6853 129.256 89.6853C124.312 89.6853 120.326 85.686 120.326 80.724C120.326 79.9834 119.736 79.4649 119.072 79.4649C118.334 79.4649 117.817 80.0574 117.817 80.724C117.817 85.686 113.832 89.6853 108.887 89.6853C108.149 89.6853 107.632 90.2778 107.632 90.9443C107.632 91.6849 108.223 92.2034 108.887 92.2034C113.832 92.2034 117.817 96.2027 117.817 101.165C117.817 101.905 118.407 102.424 119.072 102.424C119.81 102.424 120.326 101.831 120.326 101.165C120.326 96.2027 124.312 92.2034 129.256 92.2034C129.921 92.2774 130.511 91.6849 130.511 90.9443Z" fill="#E64C23"/>
<path d="M106.525 53.4696C106.525 52.9512 106.082 52.5068 105.566 52.5068C101.875 52.5068 98.9233 49.5444 98.9233 45.8414C98.9233 45.3229 98.4805 44.8786 97.9639 44.8786C97.4473 44.8786 97.0044 45.3229 97.0044 45.8414C97.0044 49.5444 94.0523 52.5068 90.3622 52.5068C89.8455 52.5068 89.4027 52.9512 89.4027 53.4696C89.4027 53.988 89.8455 54.4324 90.3622 54.4324C94.0523 54.4324 97.0044 57.3948 97.0044 61.0979C97.0044 61.6163 97.4473 62.0607 97.9639 62.0607C98.4805 62.0607 98.9233 61.6163 98.9233 61.0979C98.9233 57.3948 101.875 54.4324 105.566 54.4324C106.082 54.3583 106.525 53.988 106.525 53.4696Z" fill="#E64C23"/>
<path d="M119.588 27.1781C119.588 26.8078 119.293 26.4375 118.85 26.4375C116.046 26.4375 113.758 24.1416 113.758 21.3273C113.758 20.957 113.462 20.5867 113.02 20.5867C112.651 20.5867 112.282 20.8829 112.282 21.3273C112.282 24.1416 109.994 26.4375 107.189 26.4375C106.82 26.4375 106.451 26.7337 106.451 27.1781C106.451 27.5484 106.746 27.9187 107.189 27.9187C109.994 27.9187 112.282 30.2146 112.282 33.0289C112.282 33.3992 112.577 33.7695 113.02 33.7695C113.389 33.7695 113.758 33.4732 113.758 33.0289C113.758 30.2146 116.046 27.9187 118.85 27.9187C119.293 27.8446 119.588 27.5484 119.588 27.1781Z" fill="#E64C23"/>
<path d="M66.9664 39.1018C66.4498 39.1018 66.0808 38.7315 66.0808 38.2131C66.0808 36.3616 64.6047 34.8804 62.7597 34.8804C62.243 34.8804 61.874 34.5101 61.874 33.9917C61.874 33.4732 62.243 33.1029 62.7597 33.1029C64.6047 33.1029 66.0808 31.6217 66.0808 29.7702C66.0808 29.2518 66.4498 28.8815 66.9664 28.8815C67.4831 28.8815 67.8521 29.2518 67.8521 29.7702C67.8521 31.6217 69.3282 33.1029 71.1732 33.1029C71.6899 33.1029 72.0589 33.4732 72.0589 33.9917C72.0589 34.5101 71.6899 34.8804 71.1732 34.8804C69.3282 34.8804 67.8521 36.3616 67.8521 38.2131C67.8521 38.7315 67.4093 39.1018 66.9664 39.1018ZM66.9664 29.548C66.8926 29.548 66.8188 29.6221 66.8188 29.6961C66.8188 31.992 64.9738 33.7695 62.7597 33.7695C62.6859 33.7695 62.6121 33.8435 62.6121 33.9176C62.6121 33.9917 62.6859 34.0657 62.7597 34.0657C64.9738 34.0657 66.8188 35.9172 66.8188 38.1391C66.8188 38.2872 67.1141 38.2872 67.1141 38.1391C67.1141 35.9172 68.9591 34.0657 71.1732 34.0657C71.247 34.0657 71.3208 33.9917 71.3208 33.9176C71.3208 33.8435 71.247 33.7695 71.1732 33.7695C68.8853 33.7695 67.1141 31.918 67.1141 29.6961C67.1141 29.6221 67.0402 29.548 66.9664 29.548Z" fill="#E64C23"/>
<path d="M62.9072 115.977C62.3906 115.977 62.0216 115.607 62.0216 115.088C62.0216 113.237 60.5455 111.755 58.7005 111.755C58.1838 111.755 57.8148 111.385 57.8148 110.867C57.8148 110.348 58.1838 109.978 58.7005 109.978C60.5455 109.978 62.0216 108.497 62.0216 106.645C62.0216 106.127 62.3906 105.756 62.9072 105.756C63.4239 105.756 63.7929 106.127 63.7929 106.645C63.7929 108.497 65.269 109.978 67.114 109.978C67.6307 109.978 67.9997 110.348 67.9997 110.867C67.9997 111.385 67.6307 111.755 67.114 111.755C65.269 111.755 63.7929 113.237 63.7929 115.088C63.7929 115.607 63.4239 115.977 62.9072 115.977ZM62.9072 106.423C62.8334 106.423 62.7596 106.497 62.7596 106.571C62.7596 108.867 60.9146 110.644 58.7005 110.644C58.6267 110.644 58.5529 110.719 58.5529 110.793C58.5529 110.867 58.6267 110.941 58.7005 110.941C60.9146 110.941 62.7596 112.792 62.7596 115.014C62.7596 115.162 63.0549 115.162 63.0549 115.014C63.0549 112.792 64.8999 110.941 67.114 110.941C67.1878 110.941 67.2616 110.867 67.2616 110.793C67.2616 110.719 67.1878 110.644 67.114 110.644C64.8261 110.644 63.0549 108.793 63.0549 106.571C63.0549 106.497 62.981 106.423 62.9072 106.423Z" fill="#E64C23"/>
<path d="M109.846 131.752C109.33 131.752 108.961 131.381 108.961 130.863C108.961 129.012 107.485 127.53 105.639 127.53C105.123 127.53 104.754 127.16 104.754 126.642C104.754 126.123 105.123 125.753 105.639 125.753C107.485 125.753 108.961 124.272 108.961 122.42C108.961 121.902 109.33 121.531 109.846 121.531C110.363 121.531 110.732 121.902 110.732 122.42C110.732 124.272 112.208 125.753 114.053 125.753C114.57 125.753 114.939 126.123 114.939 126.642C114.939 127.16 114.57 127.53 114.053 127.53C112.208 127.53 110.732 129.012 110.732 130.863C110.732 131.381 110.289 131.752 109.846 131.752ZM109.846 122.198C109.772 122.198 109.699 122.272 109.699 122.346C109.699 124.568 107.854 126.419 105.639 126.419C105.566 126.419 105.492 126.494 105.492 126.568C105.492 126.642 105.566 126.716 105.639 126.716C107.854 126.716 109.699 128.567 109.699 130.789C109.699 130.937 109.994 130.937 109.994 130.789C109.994 128.567 111.839 126.716 114.053 126.716C114.127 126.716 114.201 126.642 114.201 126.568C114.201 126.494 114.127 126.419 114.053 126.419C111.765 126.419 109.994 124.568 109.994 122.346C109.994 122.272 109.92 122.198 109.846 122.198Z" fill="#E64C23"/>
</g>
<defs>
<clipPath id="clip0">
<rect width="106.793" height="172.413" fill="white" transform="translate(27.9983 20.5867)"/>
</clipPath>
</defs>
</svg>
