<svg width="19" height="19" viewBox="0 0 19 19" fill="none" xmlns="http://www.w3.org/2000/svg">
<path fill-rule="evenodd" clip-rule="evenodd" d="M6.73052 0.157349H5.53052V3.75735H6.73052V0.157349ZM18.7302 4.95742C18.7302 2.9692 17.1185 1.35742 15.1302 1.35742V2.55742C16.4557 2.55742 17.5302 3.63194 17.5302 4.95742H1.93022C1.93022 3.63194 3.00474 2.55742 4.33022 2.55742V1.35742C2.342 1.35742 0.730225 2.9692 0.730225 4.95742V14.5574C0.730225 16.5456 2.342 18.1574 4.33022 18.1574H15.1302C17.1185 18.1574 18.7302 16.5456 18.7302 14.5574V4.95742ZM7.92993 2.55742H11.5299V1.35742H7.92993V2.55742ZM1.92993 6.15735V14.5573C1.92993 15.8828 3.00445 16.9573 4.32993 16.9573H15.1299C16.4554 16.9573 17.5299 15.8828 17.5299 14.5573V6.15735H1.92993ZM12.7302 0.157349H13.9302V3.75735H12.7302V0.157349ZM6.73037 7.35742H3.13037V10.9574H6.73037V7.35742ZM7.92993 7.35742H11.5299V10.9574H7.92993V7.35742ZM6.73037 12.1573H3.13037V15.7573H6.73037V12.1573ZM7.92993 12.1573H11.5299V15.7573H7.92993V12.1573ZM16.3302 7.35742H12.7302V10.9574H16.3302V7.35742Z" fill="white"/>
</svg>
