<svg width="92" height="3" viewBox="0 0 92 3" fill="none" xmlns="http://www.w3.org/2000/svg">
<path d="M0.915076 1.38655C1.24783 1.38655 1.91334 1.38655 2.2461 1.38655C2.57885 1.38655 3.24436 1.38655 3.57712 1.38655H3.90987H3.57712C2.91161 0.267578 2.57885 0.267578 1.91334 0.267578C1.58059 0.267578 0.582321 0.267578 0.249566 0.267578L0.249566 0.640568C-0.0831887 1.01356 -0.0831887 1.38655 0.249566 1.38655C0.249566 1.75954 0.582321 1.38655 0.915076 1.38655Z" fill="#D4944E"/>
<path d="M24.2079 2.50563C24.8734 2.50563 25.5389 2.50563 25.8717 2.50563C25.8717 2.50563 26.2044 2.50563 26.2044 2.13264C26.5372 2.13264 26.5372 1.75965 26.5372 1.38666C26.5372 1.38666 26.5372 1.01367 26.2044 1.01367C25.5389 1.01367 24.8734 1.01367 24.2079 1.01367C23.5424 1.01367 23.2096 1.01367 22.8769 1.38666V1.75965V2.13264C22.8769 2.50563 23.5424 2.50563 24.2079 2.50563Z" fill="#D4944E"/>
<path d="M7.23743 1.75965C7.23743 2.13264 7.57018 2.13264 7.90294 2.13264C8.9012 2.13264 10.2322 2.13264 11.2305 2.13264C11.5632 2.13264 11.5632 2.13264 11.5632 1.75965C11.896 1.75965 11.896 1.38666 11.5632 1.38666V1.01367C10.8977 1.01367 10.2322 1.01367 9.23396 1.01367C8.9012 1.01367 8.56845 1.01367 8.23569 1.01367C7.90294 1.01367 7.90294 1.38666 7.90294 1.38666C7.23743 1.38666 7.23743 1.75965 7.23743 1.75965Z" fill="#D4944E"/>
<path d="M28.8665 2.13264C29.532 2.50563 30.5303 2.50563 31.1958 2.50563C31.5285 2.50563 31.8613 2.13264 32.194 2.13264C32.5268 2.13264 32.5268 1.75965 32.8595 1.75965C32.8595 1.75965 32.8595 1.75965 33.1923 1.75965V1.38666V1.01367C32.8595 1.01367 32.194 1.38666 31.5285 1.38666C30.863 1.38666 30.1975 1.38666 29.532 1.38666C29.1992 1.38666 29.1992 1.75965 29.1992 1.75965C28.5337 1.75965 28.5337 2.13264 28.8665 2.13264Z" fill="#D4944E"/>
<path d="M20.5476 1.0136C20.5476 1.0136 20.5476 0.640611 20.5476 1.0136C19.5493 0.640611 18.5511 0.640611 17.8856 0.640611C17.22 0.640611 15.889 0.267621 15.2235 1.0136V1.38659V1.75958C15.889 2.13257 17.22 2.13257 17.8856 2.13257C18.5511 2.13257 19.5493 2.13257 20.2148 2.13257C20.2148 2.13257 20.5476 2.13257 20.5476 1.75958C20.5476 1.38659 20.5476 1.38659 20.5476 1.0136Z" fill="#D4944E"/>
<path d="M59.4799 2.13264C60.4782 2.13264 61.8092 2.13264 62.8075 2.13264C62.8075 2.13264 63.1403 2.13264 63.1403 1.75965C63.473 1.75965 63.473 1.38666 63.1403 1.38666V1.01367C62.142 1.01367 60.811 1.01367 59.8127 1.01367C59.4799 1.01367 59.4799 1.38666 59.4799 1.38666C59.1472 1.38666 59.1472 2.13264 59.4799 2.13264Z" fill="#D4944E"/>
<path d="M52.4921 2.13264C53.1576 2.13264 53.4904 2.13264 54.1559 2.13264C54.8214 2.13264 55.4869 2.13264 55.8197 2.13264C55.8197 2.13264 56.1524 2.13264 56.1524 1.75965C56.4852 1.75965 56.4852 1.38666 56.4852 1.38666C56.4852 1.38666 56.4852 1.01367 56.1524 1.01367C55.4869 1.01367 54.8214 1.01367 54.4886 1.01367C53.8231 1.01367 53.4904 1.01367 52.8249 1.01367C52.4921 1.01367 52.4921 1.38666 52.8249 1.38666C52.1593 1.38666 52.1593 1.75965 52.4921 2.13264Z" fill="#D4944E"/>
<path d="M88.7624 1.75947C89.4279 1.75947 90.0934 1.75947 90.7589 1.75947C90.7589 1.75947 91.0917 1.75947 91.0917 1.38648C91.4244 1.38648 91.4244 1.01349 91.0917 1.01349C91.0917 1.01349 91.0917 0.640503 90.7589 0.640503C90.0934 0.640503 89.0951 0.640503 88.4296 0.640503C87.7641 0.640503 87.4313 0.640503 86.7658 1.01349V1.38648V1.75947C87.4313 1.75947 88.0969 1.75947 88.7624 1.75947Z" fill="#D4944E"/>
<path d="M67.1333 2.13264C67.7988 2.13264 68.4643 2.13264 69.4626 2.13264C69.4626 2.13264 69.7954 2.13264 69.7954 1.75965C70.1281 1.75965 70.1281 1.38666 69.7954 1.38666C69.7954 1.38666 69.7953 1.01367 69.4626 1.01367C68.4643 1.01367 67.7988 1.01367 66.8006 1.01367C66.135 1.01367 65.4695 1.01367 65.1368 1.38666V1.75965V2.13264C65.8023 2.13264 66.4678 2.13264 67.1333 2.13264Z" fill="#D4944E"/>
<path d="M73.1228 2.13264C73.7883 2.13264 74.4538 2.13264 74.7866 2.13264C74.7866 2.13264 75.1194 2.13264 75.1194 1.75965C75.4521 1.75965 75.4521 1.38666 75.1194 1.38666V1.01367C74.4538 1.01367 73.7883 1.01367 73.1228 1.01367C72.7901 1.01367 72.1246 1.01367 71.7918 1.01367V1.38666V1.75965C71.7918 2.13264 72.4573 2.13264 73.1228 2.13264Z" fill="#D4944E"/>
<path d="M80.4435 2.13251C80.7762 2.13251 82.1073 2.13251 82.1073 2.13251H82.44H82.7728C82.7728 2.13251 82.7728 2.13251 82.7728 1.75952C82.7728 1.75952 82.7728 1.38653 82.44 1.38653C81.7745 1.01354 81.109 1.01354 80.4435 1.01354C79.778 1.01354 79.1125 0.640546 78.447 1.38653V1.75952C78.1142 1.75952 78.1142 2.13251 78.447 2.13251C78.7797 2.13251 79.778 2.13251 80.4435 2.13251Z" fill="#D4944E"/>
<path d="M40.1801 2.13252C40.5129 1.75953 40.8456 1.38654 40.5129 1.38654C40.5129 1.38654 40.5129 1.01355 40.1801 1.01355C38.8491 1.01355 36.8526 0.640562 35.5216 1.01355C35.1888 1.01355 35.5216 1.38654 35.5216 1.38654C35.1888 1.38654 35.1888 1.75953 35.5216 1.75953C36.8526 2.50551 38.5164 2.13252 40.1801 2.13252Z" fill="#D4944E"/>
<path d="M45.837 2.13257C46.8353 2.13257 47.8335 2.13257 49.1645 2.13257C49.1645 2.13257 49.4973 2.13257 49.4973 1.75958C49.83 1.75958 49.83 1.38659 49.83 1.0136C49.83 1.0136 49.83 0.640611 49.4973 0.640611C48.499 0.640611 47.5008 0.640611 46.1697 0.640611C45.5042 0.640611 44.506 0.267621 43.8405 1.0136V1.38659V1.75958C44.1732 2.13257 45.1715 2.13257 45.837 2.13257Z" fill="#D4944E"/>
</svg>
